HIERARCHY
ROOT Hips
{
	OFFSET 0.000000 0.000000 0.000000
	CHANNELS 6 Xposition Yposition Zposition Zrotation Yrotation Xrotation 
	JOINT LHipJoint
	{
		OFFSET 0.000000 0.000000 0.000000
		CHANNELS 3 Zrotation Yrotation Xrotation
		JOINT LeftUpLeg
		{
			OFFSET 1.363060 -1.794630 0.839290
			CHANNELS 3 Zrotation Yrotation Xrotation
			JOINT LeftLeg
			{
				OFFSET 2.448110 -6.726130 0.000000
				CHANNELS 3 Zrotation Yrotation Xrotation
				JOINT LeftFoot
				{
					OFFSET 2.562200 -7.039590 0.000000
					CHANNELS 3 Zrotation Yrotation Xrotation
					JOINT LeftToeBase
					{
						OFFSET 0.157640 -0.433110 2.322550
						CHANNELS 3 Zrotation Yrotation Xrotation
						End Site
						{
							OFFSET 0.000000 0.000000 0.000000
						}
					}
				}
			}
		}
	}
	JOINT RHipJoint
	{
		OFFSET 0.000000 0.000000 0.000000
		CHANNELS 3 Zrotation Yrotation Xrotation
		JOINT RightUpLeg
		{
			OFFSET -1.305520 -1.794630 0.839290
			CHANNELS 3 Zrotation Yrotation Xrotation
			JOINT RightLeg
			{
				OFFSET -2.542530 -6.985550 0.000000
				CHANNELS 3 Zrotation Yrotation Xrotation
				JOINT RightFoot
				{
					OFFSET -2.568260 -7.056230 0.000000
					CHANNELS 3 Zrotation Yrotation Xrotation
					JOINT RightToeBase
					{
						OFFSET -0.164730 -0.452590 2.363150
						CHANNELS 3 Zrotation Yrotation Xrotation
						End Site
						{
							OFFSET 0.000000 0.000000 0.000000
						}
					}
				}
			}
		}
	}
	JOINT LowerBack
	{
		OFFSET 0.000000 0.000000 0.000000
		CHANNELS 3 Zrotation Yrotation Xrotation
		JOINT Spine
		{
			OFFSET 0.028270 2.035590 -0.193380
			CHANNELS 3 Zrotation Yrotation Xrotation
			JOINT Spine1
			{
				OFFSET 0.056720 2.048850 -0.042750
				CHANNELS 3 Zrotation Yrotation Xrotation
				JOINT Neck
				{
					OFFSET 0.000000 0.000000 0.000000
					CHANNELS 3 Zrotation Yrotation Xrotation
					JOINT Neck1
					{
						OFFSET -0.054170 1.746240 0.172020
						CHANNELS 3 Zrotation Yrotation Xrotation
						JOINT Head
						{
							OFFSET 0.104070 1.761360 -0.123970
							CHANNELS 3 Zrotation Yrotation Xrotation
							End Site
							{
								OFFSET 0.000000 0.000000 0.000000
							}
						}
					}
				}
				JOINT LeftShoulder
				{
					OFFSET 0.000000 0.000000 0.000000
					CHANNELS 3 Zrotation Yrotation Xrotation
					JOINT LeftArm
					{
						OFFSET 3.362410 1.200890 -0.311210
						CHANNELS 3 Zrotation Yrotation Xrotation
						JOINT LeftForeArm
						{
							OFFSET 4.983000 -0.000000 -0.000000
							CHANNELS 3 Zrotation Yrotation Xrotation
							JOINT LeftHand
							{
								OFFSET 3.483560 -0.000000 -0.000000
								CHANNELS 3 Zrotation Yrotation Xrotation
								JOINT LeftFingerBase
								{
									OFFSET 0.000000 0.000000 0.000000
									CHANNELS 3 Zrotation Yrotation Xrotation
									JOINT LeftHandIndex1
									{
										OFFSET 0.715260 -0.000000 -0.000000
										CHANNELS 3 Zrotation Yrotation Xrotation
										End Site
										{
											OFFSET 0.000000 0.000000 0.000000
										}
									}
								}
								JOINT LThumb
								{
									OFFSET 0.000000 0.000000 0.000000
									CHANNELS 3 Zrotation Yrotation Xrotation
									End Site
									{
										OFFSET 0.000000 0.000000 0.000000
									}
								}
							}
						}
					}
				}
				JOINT RightShoulder
				{
					OFFSET 0.000000 0.000000 0.000000
					CHANNELS 3 Zrotation Yrotation Xrotation
					JOINT RightArm
					{
						OFFSET -3.136600 1.374050 -0.404650
						CHANNELS 3 Zrotation Yrotation Xrotation
						JOINT RightForeArm
						{
							OFFSET -5.241900 -0.000000 -0.000000
							CHANNELS 3 Zrotation Yrotation Xrotation
							JOINT RightHand
							{
								OFFSET -3.444170 -0.000000 -0.000000
								CHANNELS 3 Zrotation Yrotation Xrotation
								JOINT RightFingerBase
								{
									OFFSET 0.000000 0.000000 0.000000
									CHANNELS 3 Zrotation Yrotation Xrotation
									JOINT RightHandIndex1
									{
										OFFSET -0.622530 -0.000000 -0.000000
										CHANNELS 3 Zrotation Yrotation Xrotation
										End Site
										{
											OFFSET 0.000000 0.000000 0.000000
										}
									}
								}
								JOINT RThumb
								{
									OFFSET 0.000000 0.000000 0.000000
									CHANNELS 3 Zrotation Yrotation Xrotation
									End Site
									{
										OFFSET 0.000000 0.000000 0.000000
									}
								}
							}
						}
					}
				}
			}
		}
	}
}
MOTION
Frames: 4
Frame Time: 0.008333
0.086483 17.864600 -0.445756 -1.188924 1.983973 -4.648629 4.397462 3.686393 1.473319 -19.211762 -11.288362 6.615716 -1.390506 2.965997 12.519729 -2.146087 9.989120 -1.800339 0.393400 -4.027500 -11.153900 -4.824381 -2.930493 0.665339 24.501004 10.446444 7.237852 -0.031293 -4.789561 15.478760 2.474540 -13.744636 -6.855460 -0.374900 3.932500 -10.886800 -0.476382 0.284680 7.121577 0.773871 0.303699 4.597072 -1.492614 0.391281 -4.630824 -16.757363 -11.276921 -9.031527 0.404757 -13.908037 22.497777 1.734200 -8.036300 10.876600 -4.178301 -5.844577 1.540822 -89.750679 -5.221515 20.038378 17.713702 -22.046279 -2.749357 0.703391 0.812358 -11.260601 12.977348 9.620250 1.920100 -7.125000 0.000000 0.000000 -12.758500 38.850500 1.970600 3.291766 5.158995 1.521743 87.970347 3.192139 27.090862 -19.224902 24.667573 -3.264315 -0.682122 0.156363 10.231138 -8.311779 10.329459 -1.370900 7.125000 0.000000 0.000000 13.715800 -19.715300 8.530400 
0.085705 17.866267 -0.444422 -1.187075 1.993362 -4.634077 4.397183 3.687260 1.472583 -19.204781 -11.275370 6.636108 -1.397896 2.938833 12.446961 -2.152081 10.009998 -1.738918 0.397100 -4.046100 -11.206300 -4.825404 -2.929441 0.667016 24.500439 10.478862 7.185506 -0.037264 -4.814137 15.542234 2.472533 -13.743328 -6.905124 -0.359600 3.852400 -10.661700 -0.501106 0.272076 7.135751 0.784688 0.283004 4.571402 -1.463769 0.380927 -4.667637 -16.793143 -11.265402 -9.025984 0.416911 -13.889899 22.514406 1.745600 -8.031000 10.885600 -4.179188 -5.846296 1.538848 -89.792608 -5.179877 19.949309 17.709149 -22.040940 -2.746707 0.700710 0.805209 -11.171885 12.876931 9.562071 1.893400 -7.125000 0.000000 0.000000 -12.828000 38.790500 2.001100 3.290337 5.159440 1.520727 87.952478 3.149550 27.023992 -19.198946 24.636269 -3.256534 -0.685603 0.169360 10.304481 -8.300194 10.513494 -1.390400 7.125000 0.000000 0.000000 13.716100 -19.546500 8.584100 
0.087706 17.867267 -0.443311 -1.215152 1.952120 -4.628279 4.396757 3.684908 1.472701 -19.187349 -11.274939 6.576694 -1.384939 2.981922 12.559481 -2.146182 9.987770 -1.763164 0.386800 -3.993700 -11.058800 -4.823472 -2.928396 0.666124 24.493664 10.434609 7.160922 -0.031932 -4.793934 15.486375 2.453860 -13.652546 -6.851485 -0.339800 3.746200 -10.363600 -0.448871 0.267128 7.143224 0.783857 0.282226 4.568068 -1.495577 0.379881 -4.672171 -16.792043 -11.267103 -9.077933 0.410278 -13.883654 22.550475 1.739000 -8.028700 10.909400 -4.178869 -5.845729 1.540147 -89.786040 -5.146155 19.908702 17.738973 -22.082160 -2.757264 0.694359 0.811686 -11.151409 12.830103 9.709960 1.916000 -7.125000 0.000000 0.000000 -12.892800 38.926700 1.967600 3.288849 5.159869 1.519641 87.946081 3.145147 27.000678 -19.162399 24.594411 -3.248454 -0.699911 0.182531 10.396551 -8.457448 10.753669 -1.447500 7.125000 0.000000 0.000000 13.602800 -19.313900 8.581900 
0.088707 17.865267 -0.441310 -1.283230 1.921880 -4.615541 4.395727 3.687045 1.474129 -19.102503 -11.225584 6.512361 -1.376699 3.001956 12.613807 -2.135254 9.938958 -1.748301 0.379200 -3.954700 -10.949200 -4.822718 -2.927606 0.664703 24.547854 10.365122 7.146780 -0.028969 -4.782783 15.454589 2.443532 -13.603726 -6.815555 -0.366600 3.889200 -10.765200 -0.360064 0.264627 7.138559 0.795898 0.289032 4.569788 -1.533365 0.381157 -4.666127 -16.801938 -11.292408 -9.111662 0.412758 -13.912445 22.547890 1.734800 -8.041400 10.920000 -4.174882 -5.847763 1.538581 -89.781789 -5.188078 19.894677 17.686782 -22.009582 -2.739624 0.696100 0.823908 -11.143313 12.941740 9.844206 1.959700 -7.125000 0.000000 0.000000 -12.827900 39.056800 1.915400 3.285013 5.162181 1.517893 87.960550 3.115723 26.974119 -19.104411 24.522001 -3.231303 -0.714756 0.173039 10.405571 -8.729838 10.694978 -1.490300 7.125000 0.000000 0.000000 13.425400 -19.348600 8.452700 
